<svg xmlns="http://www.w3.org/2000/svg" viewBox="0 0 1200 750" fill="none">
  <rect width="1200" height="750" rx="16" fill="#07070B"/>
  <rect x="0" y="0" width="1200" height="48" rx="16" fill="#0D0D14"/>
  <circle cx="28" cy="24" r="6" fill="#F87171" opacity="0.8"/>
  <circle cx="48" cy="24" r="6" fill="#FBBF24" opacity="0.8"/>
  <circle cx="68" cy="24" r="6" fill="#34D399" opacity="0.8"/>

  <!-- Mobile phone mockup inside browser -->
  <rect x="100" y="90" width="450" height="580" rx="20" fill="#12121B" stroke="rgba(255,255,255,0.08)"/>
  <rect x="140" y="130" width="180" height="24" rx="6" fill="#22D3EE"/>
  <rect x="140" y="170" width="370" height="80" rx="12" fill="#181824" stroke="rgba(124,92,255,0.3)"/>
  <circle cx="180" cy="210" r="20" fill="#7C5CFF"/>
  <rect x="220" y="195" width="160" height="14" rx="4" fill="#F5F5F7"/>
  <rect x="220" y="215" width="100" height="12" rx="4" fill="#6B6B80"/>

  <rect x="140" y="270" width="370" height="80" rx="12" fill="#181824"/>
  <rect x="140" y="370" width="370" height="80" rx="12" fill="#181824"/>
  <rect x="140" y="470" width="370" height="160" rx="12" fill="#181824"/>

  <!-- Right side coach metrics -->
  <rect x="600" y="90" width="500" height="270" rx="16" fill="#12121B" stroke="rgba(255,255,255,0.06)"/>
  <rect x="630" y="120" width="200" height="32" rx="6" fill="#F5F5F7"/>
  <path d="M 640 280 C 720 220, 800 290, 880 200 C 960 160, 1020 220, 1060 180" stroke="#34D399" stroke-width="4" fill="none"/>

  <rect x="600" y="390" width="500" height="280" rx="16" fill="#12121B" stroke="rgba(255,255,255,0.06)"/>
  <circle cx="700" cy="530" r="60" stroke="#7C5CFF" stroke-width="12" fill="none" stroke-dasharray="280" stroke-dashoffset="60"/>
  <rect x="800" y="480" width="180" height="20" rx="4" fill="#F5F5F7"/>
  <rect x="800" y="515" width="240" height="16" rx="4" fill="#A1A1B5"/>
  <rect x="800" y="550" width="140" height="16" rx="4" fill="#22D3EE"/>
</svg>
